<?xml version="1.0" encoding="utf-8"?>
<!-- Svg Vector Icons : http://www.onlinewebfonts.com/icon -->
<!DOCTYPE svg PUBLIC "-//W3C//DTD SVG 1.1//EN" "http://www.w3.org/Graphics/SVG/1.1/DTD/svg11.dtd">
<svg version="1.1" xmlns="http://www.w3.org/2000/svg" xmlns:xlink="http://www.w3.org/1999/xlink" x="0px" y="0px" viewBox="0 0 1000 1000" enable-background="new 0 0 1000 1000" xml:space="preserve">
<metadata> Svg Vector Icons : http://www.onlinewebfonts.com/icon </metadata>
<g><g><path d="M456.2,677.2V543.8H10v-87.6h446.2V322.8L633.4,500L456.2,677.2z M900.3,99.7c23.6,0,44.5,8.7,62.6,26.1c18.1,17.4,27.1,38.6,27.1,63.6v623.4c0,23.6-9,44.1-27.1,61.5s-38.9,26.1-62.6,26.1H99.7c-23.6,0-44.5-8.7-62.6-26.1C19,856.9,10,836.4,10,812.8V633.4h89.7v179.3h800.7V187.2H99.7v179.3H10V189.3c0-23.6,9-44.5,27.1-62.6C55.2,108.7,76,99.7,99.7,99.7H900.3z"/></g></g>
</svg>