<?xml version="1.0" encoding="utf-8"?>
<!-- Svg Vector Icons : http://www.onlinewebfonts.com/icon -->
<!DOCTYPE svg PUBLIC "-//W3C//DTD SVG 1.1//EN" "http://www.w3.org/Graphics/SVG/1.1/DTD/svg11.dtd">
<svg version="1.1" xmlns="http://www.w3.org/2000/svg" xmlns:xlink="http://www.w3.org/1999/xlink" x="0px" y="0px" viewBox="0 0 1000 1000" enable-background="new 0 0 1000 1000" xml:space="preserve">
<metadata> Svg Vector Icons : http://www.onlinewebfonts.com/icon </metadata>
<g><g transform="translate(0.000000,511.000000) scale(0.100000,-0.100000)"><path d="M897.7,4981.3c-250.6-79.3-485.9-329.9-547.2-577.9c-17.9-81.8-25.6-1365.6-20.5-4360.1l7.7-4245.1l61.4-127.9c81.8-161.1,235.3-317.1,398.9-396.4l127.9-63.9h2467.7h2467.8l133,61.4c158.6,71.6,347.8,263.4,424.5,432.2c56.3,120.2,56.3,127.9,63.9,2058.6l7.7,1935.9h-514h-511.5l-5.1-989.7l-7.7-992.2l-2050.9-7.7l-2053.5-5.1V848.7v3145.4h2058.6h2058.6V2869V1743.8h511.5h514l-7.7,1324.7c-7.7,1296.5-7.7,1324.7-63.9,1442.3c-76.7,168.8-265.9,360.6-424.5,432.2l-133,61.4l-2429.4,5.1C1503.7,5012,982.1,5006.9,897.7,4981.3z M3618.6-3235.2c120.2-87,184.1-207.1,184.1-340.1c0-306.9-337.6-503.8-601-352.9c-110,63.9-217.4,237.8-217.4,352.9s107.4,289,217.4,352.9C3327.1-3150.8,3513.7-3155.9,3618.6-3235.2z"/><path d="M7919.9,2308.9c-15.3-30.7-25.6-273.6-25.6-613.7V1130H6523.6c-1536.9,0-1488.3,5.1-1616.2-184.1c-133-204.6-61.4-475.6,158.5-580.5c104.8-51.1,145.8-53.7,1467.9-53.7h1360.5v-565.2c0-340.1,10.2-583.1,25.6-613.7c69-127.9,125.3-84.4,956.4,759.5c437.3,445,795.3,818.3,795.3,828.5c0,10.2-355.5,381-792.7,828.5c-654.6,667.5-805.5,808.1-861.8,808.1C7973.6,2357.5,7937.8,2337.1,7919.9,2308.9z"/></g></g>
</svg>