<?xml version="1.0" encoding="utf-8"?>
<!-- Svg Vector Icons : http://www.onlinewebfonts.com/icon -->
<!DOCTYPE svg PUBLIC "-//W3C//DTD SVG 1.1//EN" "http://www.w3.org/Graphics/SVG/1.1/DTD/svg11.dtd">
<svg version="1.1" xmlns="http://www.w3.org/2000/svg" xmlns:xlink="http://www.w3.org/1999/xlink" x="0px" y="0px" viewBox="0 0 1000 1000" enable-background="new 0 0 1000 1000" xml:space="preserve">
<metadata> Svg Vector Icons : http://www.onlinewebfonts.com/icon </metadata>
<g><path d="M866.1,810.3c-13.6,11.1-28.8,20.4-44.9,27.6C839.9,835.8,856.2,825.6,866.1,810.3z"/><path d="M876.1,441.2V158c0-34.2-27.8-61.8-61.8-61.8H71.9C37.6,96.2,10,123.8,10,158v618.7c0,34.1,27.6,61.9,61.9,61.9h497.5c44.7,40.5,103.8,65.2,168.6,65.2c139,0,252-113.1,252-252C990,563.8,944.7,486.3,876.1,441.2z M305.9,142.6c17,0,30.9,13.8,30.9,31c0,17.1-13.9,30.7-30.9,30.7c-17.1,0-31-13.7-31-30.7C274.8,156.4,288.7,142.6,305.9,142.6z M211.1,142.6c17.1,0,31,13.8,31,31c0,17.1-13.9,30.7-31,30.7c-17.1,0-31-13.7-31-30.7C180.1,156.4,194,142.6,211.1,142.6z M118.2,142.6c17.1,0,31,13.8,31,31c0,17.1-13.9,30.7-31,30.7c-17,0-30.9-13.7-30.9-30.7C87.4,156.4,101.2,142.6,118.2,142.6z M71.9,776.7V251.5h742.4v160c-24-7.6-49.8-11.9-76.4-11.9c-138.9,0-252.1,113-252.1,252.2c0,45.4,12.3,88,33.5,124.9H71.9L71.9,776.7z M866.1,810.3c-9.9,15.2-26.2,25.5-44.9,27.6c-25.5,11.4-53.6,17.8-83.3,17.8c-29.1,0-56.6-6.1-81.7-17.1c-31.3-13.8-58.4-35.1-79.2-61.9c-26.9-34.5-43.2-77.9-43.2-124.9c0-112.6,91.6-204.1,204.1-204.1c27,0,52.8,5.4,76.4,14.9c23,9.4,43.8,22.8,61.8,39.5c40.4,37.2,65.9,90.4,65.9,149.7C942,715.7,912.4,772.9,866.1,810.3z"/><path d="M727.6,653.7l-63.3-32.1c-1.4-0.7-3-0.7-4.4,0v0l-67.6,32.2c-1.9,0.7-3.2,2.6-3.2,4.7v87.6h0c0,1.8,0.9,3.5,2.6,4.4l65.5,35.9l0,0l0,0l0,0l0,0l0,0l0,0l0,0l0,0l0,0l0,0l0,0l0,0l0,0l0,0l0,0l0,0l0,0l0.1,0l0,0l0,0l0,0l0,0l0,0l0,0l0,0l0,0l0,0l0,0l0,0l0,0l0,0l0,0l0,0l0,0l0,0l0,0l0,0l0,0l0,0l0,0l0,0l0,0l0,0l0,0v0l0,0l0,0l0,0l0,0l0,0l0,0h0l0,0l0,0l0,0l0,0l0,0l0,0l0,0l0,0l0,0l0,0l0,0l0,0l0,0h0l0,0h0.1l0,0h0l0.1,0l0,0h0h0l0,0l0,0h0h0h0.1h0.1h0h0l0,0l0,0h0h0l0.1,0l0,0h0l0,0h0.1l0,0l0.1,0l0,0l0,0l0,0l0,0l0,0l0,0l0,0l0,0l0,0l0,0l0,0l0,0h0l0,0l0,0l0,0l0,0l0,0l0,0l0,0l0,0l0,0l0,0v0l0,0l0,0l0,0l0,0l0,0l0,0l0,0l0,0l0,0l0,0l0,0l0,0l0,0l0,0l0,0l0,0l0,0l0,0l0,0l0,0l0,0l0,0l0.1,0l0,0l0,0l0,0l0,0l0,0l0,0l0,0l0,0l0,0l0,0l0,0l0,0l0,0l0,0l0,0l0,0l0,0l65.5-35.9c1.7-0.9,2.6-2.7,2.6-4.4h0v-87.6C730.9,656.3,729.5,654.5,727.6,653.7L727.6,653.7z M662.1,631.8l14.2,7.2l-54.9,28.6l-16.1-8.9L662.1,631.8L662.1,631.8z M654.9,773.6l-55.7-30.6V667l17,9.3v16.8l12.6,5.9v-15.9l26.1,14.3V773.6L654.9,773.6z M660,688.8L634.8,675l55.4-28.9l24.8,12.6L660,688.8L660,688.8z M873.2,653.7l-63.3-32.1c-1.4-0.7-3-0.7-4.4,0v0l-67.6,32.2c-1.9,0.7-3.2,2.6-3.2,4.7v87.6h0c0,1.8,0.9,3.5,2.6,4.4l65.5,35.9l0,0l0,0l0,0l0,0l0,0l0,0l0,0l0,0l0,0l0,0l0,0l0,0l0,0l0,0l0,0l0,0l0,0l0.1,0l0,0l0,0l0,0l0,0l0,0l0,0l0,0l0,0l0,0l0,0l0,0l0,0l0,0l0,0l0,0l0,0l0,0l0,0l0,0l0,0l0,0l0,0l0,0l0,0l0,0l0,0v0l0,0l0,0l0,0l0,0l0,0l0,0h0l0,0l0,0l0,0l0,0l0,0l0,0l0,0l0,0l0,0l0,0l0,0l0,0l0,0h0l0,0h0.1l0,0h0l0.1,0l0,0h0h0l0,0l0,0h0h0h0.1h0.1h0h0l0,0l0,0h0h0l0.1,0l0,0h0l0,0h0.1l0,0l0.1,0l0,0l0,0l0,0l0,0l0,0l0,0l0,0l0,0l0,0l0,0l0,0l0,0h0l0,0l0,0l0,0l0,0l0,0l0,0l0,0l0,0l0,0l0,0v0l0,0l0,0l0,0l0,0l0,0l0,0l0,0l0,0l0,0l0,0l0,0l0,0l0,0l0,0l0,0l0,0l0,0l0,0l0,0l0,0l0,0l0,0l0.1,0l0,0l0,0l0,0l0,0l0,0l0,0l0,0l0,0l0,0l0,0l0,0l0,0l0,0l0,0l0,0l0,0l0,0l65.5-35.9c1.7-0.9,2.6-2.7,2.6-4.4h0v-87.6C876.4,656.3,875.1,654.5,873.2,653.7L873.2,653.7z M807.6,631.8l14.2,7.2L767,667.6l-16.1-8.9L807.6,631.8L807.6,631.8z M800.5,773.6l-55.7-30.6V667l17,9.3v16.8l12.6,5.9v-15.9l26.1,14.3V773.6L800.5,773.6z M805.5,688.8L780.3,675l55.4-28.9l24.8,12.6L805.5,688.8L805.5,688.8z M801.9,528l-63.3-32.1c-1.4-0.7-3-0.7-4.4,0v0L666.6,528c-1.9,0.7-3.2,2.6-3.2,4.7v87.6h0c0,1.8,0.9,3.5,2.6,4.4l65.5,35.9l0,0l0,0l0,0l0,0l0,0l0,0l0,0l0,0l0,0l0,0l0,0l0,0l0,0l0,0l0,0l0,0l0,0l0.1,0l0,0l0,0l0,0l0,0l0,0l0,0l0,0l0,0l0,0l0,0l0,0l0,0l0,0l0,0l0,0l0,0l0,0l0,0l0,0l0,0l0,0l0,0l0,0l0,0l0,0l0,0v0l0,0l0,0l0,0l0,0l0,0l0,0h0l0,0l0,0l0,0l0,0l0,0l0,0l0,0l0,0l0,0l0,0l0,0l0,0l0,0h0l0,0h0.1l0,0h0l0.1,0l0,0h0h0l0,0l0,0h0h0h0.1h0.1h0h0l0,0l0,0h0h0l0.1,0l0,0h0l0,0h0l0,0l0.1,0l0,0l0,0l0,0l0,0l0,0l0,0l0,0l0,0l0,0l0,0l0,0l0,0h0l0,0l0,0l0,0l0,0l0,0l0,0l0,0l0,0l0,0l0,0v0l0,0l0,0l0,0l0,0l0,0l0,0l0,0l0,0l0,0l0,0l0,0l0,0l0,0l0,0l0,0l0,0l0,0l0,0l0,0l0,0l0,0l0,0l0.1,0l0,0l0,0l0,0l0,0l0,0l0,0l0,0l0,0l0,0l0,0l0,0l0,0l0,0l0,0l0,0l0,0l0,0l65.5-35.9c1.7-0.9,2.6-2.7,2.6-4.4h0v-87.6C805.2,530.6,803.8,528.8,801.9,528L801.9,528z M739.9,507.9l14.2,7.2l-54.9,28.6l-16.1-8.9L739.9,507.9L739.9,507.9z M729.3,649.7l-55.7-30.6v-76.1l17,9.3v16.8l12.6,6v-15.9l26.1,14.3V649.7L729.3,649.7z M734.3,563.1l-25.2-13.8l55.4-28.9l24.8,12.6L734.3,563.1L734.3,563.1z"/></g>
</svg>